<?xml version="1.0"?>
<svg xmlns="http://www.w3.org/2000/svg" xmlns:xlink="http://www.w3.org/1999/xlink" xmlns:svgjs="http://svgjs.com/svgjs" version="1.1" width="512" height="512" x="0" y="0" viewBox="0 0 682.66669 682" style="enable-background:new 0 0 512 512" xml:space="preserve" class=""><g><path d="m565 495.667969h-490c-41.359375 0-75-33.644531-75-75v-350c0-41.359375 33.640625-75 75-75h490c41.359375 0 75 33.640625 75 75v350c0 41.355469-33.640625 75-75 75zm-490-450c-13.785156 0-25 11.214843-25 25v350c0 13.78125 11.214844 25 25 25h490c13.785156 0 25-11.21875 25-25v-350c0-13.785157-11.214844-25-25-25zm170 237.5v2.5c0 26.191406-21.308594 47.5-47.5 47.5s-47.5-21.308594-47.5-47.5v-80c0-26.191407 21.308594-47.5 47.5-47.5s47.5 21.308593 47.5 47.5v2.5h50v-2.5c0-53.761719-43.734375-97.5-97.5-97.5s-97.5 43.738281-97.5 97.5v80c0 53.757812 43.734375 97.5 97.5 97.5s97.5-43.742188 97.5-97.5v-2.5zm245 0v2.5c0 26.191406-21.308594 47.5-47.5 47.5s-47.5-21.308594-47.5-47.5v-80c0-26.191407 21.308594-47.5 47.5-47.5s47.5 21.308593 47.5 47.5v2.5h50v-2.5c0-53.761719-43.734375-97.5-97.5-97.5s-97.5 43.738281-97.5 97.5v80c0 53.757812 43.734375 97.5 97.5 97.5s97.5-43.742188 97.5-97.5v-2.5zm0 0" fill="#aaaaaa" data-original="#000000" class=""/></g></svg>
