<svg id="flat" height="512" viewBox="0 0 512 512" width="512" xmlns="http://www.w3.org/2000/svg"><g fill="#7b81c6"><path d="m455.735 346.235-15.362-4.471a193.3 193.3 0 0 0 -.052-107.705l15.358-4.487a209.294 209.294 0 0 1 .056 116.663z"/><path d="m56.321 346.428a209.294 209.294 0 0 1 -.056-116.663l15.362 4.471a193.3 193.3 0 0 0 .052 107.7z"/><path d="m486.751 354.2-15.382-4.4a225.408 225.408 0 0 0 -2.364-131.318l15.211-4.96a241.4 241.4 0 0 1 2.535 140.678z"/><path d="m25.249 354.2a241.4 241.4 0 0 1 2.535-140.68l15.216 4.96a225.408 225.408 0 0 0 -2.369 131.32z"/></g><path d="m391 327c-3.939-3.934-7-7-7-7v-100a28 28 0 0 0 -56 0v60l-112-112a22.627 22.627 0 0 0 -32 0 22.627 22.627 0 0 0 0 32l-16-16a22.627 22.627 0 0 0 -32 0 22.627 22.627 0 0 0 0 32l16 16a22.628 22.628 0 0 0 -32 0 22.627 22.627 0 0 0 0 32l24.067 24.067a22.723 22.723 0 0 0 -32.134 0 22.722 22.722 0 0 0 -.135 32l143.193 143.15a58.235 58.235 0 0 0 40.909 16.783 58.24 58.24 0 0 0 41.159-17.035l54.411-54.352a56.384 56.384 0 0 0 16.53-39.89v-.605a58.03 58.03 0 0 0 -17-41.118z" fill="#ecb347"/><path d="m391.465 392.613-54.411 54.352a58.24 58.24 0 0 1 -41.154 17.035 58.235 58.235 0 0 1 -40.9-16.783l-143.2-143.151a22.616 22.616 0 0 1 -5.051-7.924 22.707 22.707 0 0 0 5.051 23.924l143.191 143.151a58.235 58.235 0 0 0 40.909 16.783 58.24 58.24 0 0 0 41.159-17.035l54.411-54.352a56.384 56.384 0 0 0 16.53-39.89v-.605a58.637 58.637 0 0 0 -.531-7.769 56.377 56.377 0 0 1 -16.004 32.264z" fill="#c18423"/><path d="m246.671 101.951 24.529-10.194 22.303 14.426-2.116-26.478 20.613-16.754-25.836-6.17-9.564-24.781-13.852 22.665-26.524 1.438 17.276 20.178z" fill="#96d6e4"/><path d="m260 127.604h16v40.792h-16z" fill="#7b81c6" transform="matrix(.981 -.196 .196 .981 -23.821 55.433)"/><path d="m275.669 160h48.662v16h-48.662z" fill="#7b81c6" transform="matrix(.164 -.986 .986 .164 84.958 436.293)"/><path d="m136 184c-.461.461-.884.945-1.3 1.434a22.548 22.548 0 0 1 17.3 6.566l96 96-20 20-76-76a22.627 22.627 0 0 0 -32 0c-.461.461-.884.945-1.3 1.434a22.548 22.548 0 0 1 17.3 6.566l80 80-20 20-51.933-51.933a22.723 22.723 0 0 0 -32.134 0c-.453.453-.868.929-1.274 1.409a22.641 22.641 0 0 1 17.408 6.591l67.933 67.933 76-76-104-104a22.627 22.627 0 0 0 -32 0z" fill="#f6e597"/><path d="m343.732 312v-92a28.007 28.007 0 0 1 20.134-26.872 28 28 0 0 0 -35.866 26.872v60l-112-112a22.627 22.627 0 0 0 -32 0c-.461.461-.884.945-1.3 1.434a22.548 22.548 0 0 1 17.3 6.566l128 128v8l-20.229 20.229a39.275 39.275 0 0 0 0 55.542l36.353 36.085 7.876-7.856-28.5-28.229a39.275 39.275 0 0 1 0-55.542z" fill="#f6e597"/></svg>